<svg width="178" height="30" viewBox="0 0 178 30" fill="none" xmlns="http://www.w3.org/2000/svg">
<path d="M16.0405 29.0661V19.2409L16.4704 18.0128V12.3326L16.0405 11.1352V0.358206H21.1066V11.1352L20.7075 12.3326V18.0128L21.1066 19.2409V29.0661H16.0405ZM19.3565 15.2802C19.7045 13.4175 20.2878 11.8004 21.1066 10.429C21.9458 9.0371 23 7.96247 24.2691 7.20511C25.5586 6.44776 27.0017 6.06908 28.5983 6.06908C30.2972 6.06908 31.7812 6.45799 33.0503 7.23582C34.3194 7.99318 35.3019 9.0678 35.9979 10.4597C36.7143 11.8311 37.0725 13.438 37.0725 15.2802C37.0725 17.1019 36.7143 18.7087 35.9979 20.1006C35.2815 21.4721 34.2887 22.5467 33.0196 23.3245C31.7505 24.0819 30.2768 24.4606 28.5983 24.4606C26.9812 24.4606 25.5382 24.0819 24.2691 23.3245C23 22.5672 21.9458 21.5028 21.1066 20.1313C20.2878 18.7394 19.7045 17.1224 19.3565 15.2802ZM31.8836 15.2802C31.8836 14.2567 31.6789 13.3561 31.2695 12.5783C30.8806 11.78 30.3382 11.1659 29.6422 10.736C28.9463 10.2857 28.1275 10.0606 27.1859 10.0606C25.7531 10.0606 24.4738 10.5518 23.348 11.5343C22.2426 12.4964 21.4239 13.745 20.8917 15.2802C21.4239 16.7949 22.2426 18.0435 23.348 19.026C24.4738 20.0085 25.7531 20.4998 27.1859 20.4998C28.1275 20.4998 28.9463 20.2746 29.6422 19.8243C30.3382 19.374 30.8806 18.7599 31.2695 17.9821C31.6789 17.2043 31.8836 16.3036 31.8836 15.2802ZM17.7906 15.2802C17.4631 17.1224 16.8797 18.7394 16.0405 20.1313C15.2013 21.5028 14.1471 22.5672 12.878 23.3245C11.6294 24.0819 10.1966 24.4606 8.57953 24.4606C6.8806 24.4606 5.39659 24.0819 4.12751 23.3245C2.85842 22.5467 1.86567 21.4721 1.14925 20.1006C0.453305 18.7087 0.105331 17.1019 0.105331 15.2802C0.105331 13.438 0.453305 11.8311 1.14925 10.4597C1.86567 9.0678 2.85842 7.99318 4.12751 7.23582C5.39659 6.45799 6.8806 6.06908 8.57953 6.06908C10.1966 6.06908 11.6294 6.44776 12.878 7.20511C14.1471 7.96247 15.2013 9.0371 16.0405 10.429C16.9002 11.8004 17.4836 13.4175 17.7906 15.2802ZM5.29424 15.2802C5.29424 16.3036 5.4887 17.2043 5.87761 17.9821C6.26653 18.7599 6.80896 19.374 7.5049 19.8243C8.22132 20.2746 9.04009 20.4998 9.9612 20.4998C11.4145 20.4998 12.6938 20.0085 13.7991 19.026C14.9045 18.0435 15.7335 16.7949 16.2861 15.2802C15.7335 13.745 14.9045 12.4964 13.7991 11.5343C12.6938 10.5518 11.4145 10.0606 9.9612 10.0606C9.04009 10.0606 8.22132 10.2857 7.5049 10.736C6.80896 11.1659 6.26653 11.78 5.87761 12.5783C5.4887 13.3561 5.29424 14.2567 5.29424 15.2802ZM49.9793 24.4606C47.9119 24.4606 46.0595 24.0819 44.4219 23.3245C42.8049 22.5467 41.5256 21.4618 40.584 20.0699C39.6629 18.678 39.2023 17.061 39.2023 15.2188C39.2023 13.397 39.6424 11.8004 40.5226 10.429C41.4232 9.05757 42.6514 7.99318 44.207 7.23582C45.7627 6.45799 47.5332 6.06908 49.5187 6.06908C51.5452 6.06908 53.2851 6.5194 54.7384 7.42004C56.1917 8.30021 57.3072 9.54883 58.0851 11.1659C58.8833 12.7829 59.2825 14.6866 59.2825 16.8768H43.3166V13.4687H56.5192L54.5234 14.6968C54.4416 13.6733 54.1857 12.8034 53.7558 12.087C53.3465 11.3706 52.7836 10.8179 52.0671 10.429C51.3507 10.0401 50.5115 9.84563 49.5494 9.84563C48.5055 9.84563 47.5946 10.0606 46.8168 10.4904C46.0595 10.8998 45.4659 11.4832 45.036 12.2405C44.6266 12.9774 44.4219 13.8473 44.4219 14.8503C44.4219 16.058 44.688 17.0917 45.2202 17.9514C45.7524 18.8111 46.5303 19.4661 47.5537 19.9164C48.5772 20.3667 49.8155 20.5919 51.2688 20.5919C52.5789 20.5919 53.8991 20.4077 55.2296 20.0392C56.5601 19.6503 57.7575 19.1079 58.8219 18.4119V21.8507C57.6757 22.6695 56.3349 23.3143 54.7998 23.7851C53.2851 24.2354 51.6782 24.4606 49.9793 24.4606ZM85.9256 20.1313V28.2985H81.4735V24H65.1392V28.2985H60.6872V20.1313H65.5691L66.7051 20.2235H79.4164L80.4296 20.1313H85.9256ZM64.4637 6.52964H82.7017V22.8333H77.5742V8.00341L79.9384 10.3676H67.0121L69.0693 8.52537C69.2535 9.40554 69.3661 10.2448 69.407 11.0431C69.448 11.8209 69.4684 12.5475 69.4684 13.223C69.4684 16.1296 69.0283 18.4017 68.1482 20.0392C67.268 21.6563 66.0296 22.4648 64.433 22.4648L62.3452 20.7147C63.9827 19.5275 64.8015 16.6925 64.8015 12.2098C64.8015 11.3296 64.7708 10.4188 64.7094 9.47718C64.648 8.51514 64.5661 7.53262 64.4637 6.52964ZM103.314 14.6047V17.9514H94.7169L94.6555 17.8286C93.325 17.8286 92.1582 17.6034 91.1553 17.1531C90.1523 16.6823 89.3642 16.0273 88.7911 15.1881C88.2384 14.3284 87.9621 13.3356 87.9621 12.2098C87.9621 11.084 88.2384 10.1015 88.7911 9.26226C89.3642 8.40256 90.1523 7.73731 91.1553 7.26652C92.1582 6.77527 93.325 6.52964 94.6555 6.52964H106.968V24H101.84V7.88059L103.375 9.99915H95.8836C95.0239 9.99915 94.3484 10.2038 93.8572 10.6132C93.3864 11.0021 93.151 11.5548 93.151 12.2712C93.151 12.9876 93.3864 13.5608 93.8572 13.9906C94.3484 14.4 95.0239 14.6047 95.8836 14.6047H103.314ZM99.4452 15.8328L93.3966 24H87.5629L93.8572 15.8328H99.4452ZM110.826 6.52964H115.923V24H110.826V6.52964ZM125.471 6.52964H130.568V24H125.471V6.52964ZM113.743 13.1616H127.467V17.0303H113.743V13.1616ZM144.433 24.4606C142.263 24.4606 140.359 24.0819 138.722 23.3245C137.084 22.5467 135.805 21.4721 134.884 20.1006C133.963 18.7087 133.502 17.1019 133.502 15.2802C133.502 13.438 133.963 11.8311 134.884 10.4597C135.805 9.0678 137.084 7.99318 138.722 7.23582C140.359 6.45799 142.263 6.06908 144.433 6.06908C146.602 6.06908 148.506 6.45799 150.143 7.23582C151.781 7.99318 153.05 9.0678 153.951 10.4597C154.872 11.8311 155.332 13.438 155.332 15.2802C155.332 17.1019 154.872 18.7087 153.951 20.1006C153.05 21.4721 151.781 22.5467 150.143 23.3245C148.506 24.0819 146.602 24.4606 144.433 24.4606ZM144.433 20.5612C145.62 20.5612 146.633 20.3463 147.472 19.9164C148.332 19.4866 148.987 18.8827 149.437 18.1049C149.908 17.3066 150.143 16.365 150.143 15.2802C150.143 14.1748 149.908 13.2333 149.437 12.4554C148.987 11.6571 148.332 11.0431 147.472 10.6132C146.633 10.1834 145.62 9.96844 144.433 9.96844C143.266 9.96844 142.253 10.1834 141.393 10.6132C140.533 11.0431 139.868 11.6571 139.397 12.4554C138.947 13.2333 138.722 14.1748 138.722 15.2802C138.722 16.365 138.947 17.3066 139.397 18.1049C139.868 18.8827 140.533 19.4866 141.393 19.9164C142.253 20.3463 143.266 20.5612 144.433 20.5612ZM157.831 24L158.813 15.2802L157.831 6.52964H171.279C172.957 6.52964 174.288 6.92878 175.27 7.72708C176.253 8.5049 176.744 9.56929 176.744 10.9203C176.744 12.1893 176.253 13.223 175.27 14.0213C174.288 14.7991 172.916 15.2597 171.156 15.403L171.524 14.5433C173.571 14.6047 175.127 15.0345 176.191 15.8328C177.276 16.6107 177.819 17.7058 177.819 19.1181C177.819 20.6328 177.266 21.8303 176.161 22.7104C175.076 23.5701 173.582 24 171.678 24H157.831ZM162.774 22.864L160.809 20.684H170.112C170.992 20.684 171.637 20.51 172.046 20.162C172.456 19.7936 172.66 19.2819 172.66 18.6269C172.66 18.0333 172.435 17.5522 171.985 17.1838C171.535 16.7949 170.798 16.6004 169.774 16.6004H161.853V13.6836H169.099C169.959 13.6836 170.583 13.5096 170.972 13.1616C171.381 12.8136 171.586 12.3429 171.586 11.7493C171.586 11.1966 171.402 10.7463 171.033 10.3983C170.685 10.0503 170.112 9.87633 169.314 9.87633H160.84L162.774 7.69637L163.726 15.2802L162.774 22.864Z" fill="black"/>
</svg>
